<?xml version="1.0" encoding="UTF-8"?><svg id="Lager_1" xmlns="http://www.w3.org/2000/svg" viewBox="0 0 423 279"><defs><style>.cls-1{fill:#fff;}.cls-2{fill:#2196f3;}</style></defs><rect class="cls-2" width="423" height="279" rx="53.89" ry="53.89"/><g><path class="cls-1" d="M107.63,87.54v13.2h.4c3.47-5.6,7.87-9.67,13.2-12.2,5.33-2.53,11.2-3.8,17.6-3.8,8.13,0,15.13,1.53,21,4.6,5.87,3.07,10.73,7.13,14.6,12.2,3.87,5.07,6.73,10.97,8.6,17.7,1.87,6.73,2.8,13.77,2.8,21.1,0,6.93-.93,13.6-2.8,20-1.87,6.4-4.7,12.07-8.5,17-3.8,4.93-8.53,8.87-14.2,11.8-5.67,2.93-12.3,4.4-19.9,4.4-6.4,0-12.3-1.3-17.7-3.9-5.4-2.6-9.83-6.43-13.3-11.5h-.4v49h-28.4V87.54h27Zm36.9,82c3.13-1.87,5.67-4.3,7.6-7.3,1.93-3,3.3-6.5,4.1-10.5,.8-4,1.2-8.07,1.2-12.2s-.43-8.2-1.3-12.2c-.87-4-2.3-7.57-4.3-10.7-2-3.13-4.57-5.67-7.7-7.6-3.13-1.93-6.97-2.9-11.5-2.9s-8.57,.97-11.7,2.9c-3.13,1.93-5.67,4.43-7.6,7.5-1.93,3.07-3.3,6.6-4.1,10.6-.8,4-1.2,8.13-1.2,12.4s.43,8.2,1.3,12.2c.87,4,2.27,7.5,4.2,10.5,1.93,3,4.5,5.43,7.7,7.3,3.2,1.87,7.07,2.8,11.6,2.8s8.57-.93,11.7-2.8Z"/><path class="cls-1" d="M203.63,71.54v-23.4h28.4v23.4h-28.4Zm28.4,16v103.4h-28.4V87.54h28.4Z"/><path class="cls-1" d="M246.83,87.54h32.4l18.2,27,18-27h31.4l-34,48.4,38.2,55h-32.4l-21.6-32.6-21.6,32.6h-31.8l37.2-54.4-34-49Z"/></g></svg>